<svg width="32" height="32" xmlns="http://www.w3.org/2000/svg" fill="#000000">

 <g>
  <title>Layer 1</title>
  <g stroke="null" id="svg_3">
   <path stroke="null" id="svg_1" d="m22.32765,0.39223l-12.58753,0a9.28597,9.28597 0 0 0 -9.27889,9.27889l0,12.58753a9.28597,9.28597 0 0 0 9.27889,9.28031l12.58753,0a9.28739,9.28739 0 0 0 9.27889,-9.28031l0,-12.58753a9.28314,9.28314 0 0 0 -9.27889,-9.27889zm6.14723,21.86642a6.14865,6.14865 0 0 1 -6.14723,6.14723l-12.58753,0a6.14582,6.14582 0 0 1 -6.14582,-6.14723l0,-12.58753a6.1444,6.1444 0 0 1 6.14582,-6.14582l12.58753,0a6.14723,6.14723 0 0 1 6.14582,6.14582l0.00142,12.58753z"/>
   <path stroke="null" id="svg_2" d="m16.03459,7.91275c-4.44266,0 -8.05284,3.6116 -8.05284,8.05284s3.6116,8.05284 8.05284,8.05284s8.05284,-3.6116 8.05284,-8.05284s-3.61019,-8.05284 -8.05284,-8.05284zm0,12.97261a4.91977,4.91977 0 1 1 -0.00142,-9.83953a4.91977,4.91977 0 0 1 0.00142,9.83953zm8.06983,-14.84283a1.92968,1.92968 0 1 1 -1.9311,1.9311c0,-1.06465 0.72204,-1.9311 1.9311,-1.9311z"/>
  </g>
 </g>
</svg>