<?xml version="1.0" standalone="no"?>
<!DOCTYPE svg PUBLIC "-//W3C//DTD SVG 20010904//EN"
 "http://www.w3.org/TR/2001/REC-SVG-20010904/DTD/svg10.dtd">
<svg version="1.0" xmlns="http://www.w3.org/2000/svg"
 width="1024.000000pt" height="1024.000000pt" viewBox="0 0 1024.000000 1024.000000"
 preserveAspectRatio="xMidYMid meet">
<defs>
    <linearGradient id="myGradient" x1="0%" y1="0%" x2="100%" y2="0%">
      	<stop offset="0%" stop-color="red" />
      	<stop offset="100%" stop-color="blue" />
    </linearGradient>
</defs>

<g transform="translate(0.000000,1024.000000) scale(0.100000,-0.100000)"
fill="url(#myGradient)" stroke="none">
<path d="M3670 7685 c-433 -65 -823 -251 -1152 -548 -233 -211 -441 -484 -703
-922 -183 -306 -316 -489 -445 -608 -169 -157 -376 -258 -557 -274 -78 -6
-101 -19 -80 -46 11 -14 184 -108 335 -181 34 -16 62 -33 62 -37 0 -4 -24 -13
-52 -19 -141 -33 -143 -78 -8 -145 142 -71 263 -97 575 -120 240 -18 414 -50
554 -101 107 -39 649 -306 632 -312 -5 -2 -45 12 -88 32 -320 143 -676 256
-923 291 -213 30 -555 13 -758 -38 -74 -19 -87 -25 -90 -44 -2 -14 4 -26 18
-33 12 -6 128 -27 258 -46 320 -46 775 -135 837 -164 13 -6 -47 -7 -160 -3
-277 8 -562 -20 -586 -58 -24 -39 25 -62 316 -145 267 -78 577 -182 733 -249
74 -31 317 -147 540 -259 224 -111 442 -218 484 -237 43 -19 78 -38 78 -43 0
-4 -8 -5 -17 -1 -10 4 -94 36 -188 70 -187 68 -311 119 -631 260 -360 159
-515 203 -749 211 -161 6 -220 -2 -220 -31 0 -17 28 -30 165 -78 190 -66 343
-130 560 -235 250 -119 577 -266 845 -380 137 -58 462 -199 720 -315 455 -203
472 -210 535 -210 75 0 167 29 625 198 392 144 515 181 710 211 169 26 288 16
404 -35 93 -41 201 -43 341 -6 164 44 261 100 310 181 65 104 294 223 660 342
223 72 1502 493 1605 528 105 35 130 55 138 108 4 33 -21 66 -51 66 -42 0
-141 33 -182 61 -102 69 -121 135 -127 424 l-5 220 36 34 c24 24 36 44 36 62
0 45 -49 53 -163 26 -81 -19 -121 -21 -332 -21 -320 0 -386 10 -910 139 -571
140 -798 171 -1065 146 -274 -27 -486 -82 -843 -222 -128 -50 -284 -105 -347
-122 -108 -29 -126 -30 -305 -31 -216 -1 -298 12 -449 70 -278 107 -480 318
-566 589 -34 106 -39 292 -12 406 24 100 57 179 103 246 143 210 361 353 536
353 106 0 162 -54 178 -169 5 -37 15 -62 35 -85 27 -30 31 -31 104 -30 56 1
76 -2 76 -11 0 -26 60 -65 98 -65 47 0 85 25 127 84 51 72 70 151 69 291 -1
107 -5 130 -33 215 -143 424 -561 735 -1093 815 -120 18 -428 18 -548 0z
m-365 -303 c-60 -118 -126 -200 -234 -289 -36 -29 -66 -51 -67 -50 -2 2 28 35
66 75 82 85 194 228 245 312 20 33 39 60 41 60 3 0 -20 -49 -51 -108z m845 88
c0 -5 -15 -10 -34 -10 -96 0 -304 -59 -426 -120 -188 -94 -446 -308 -657 -544
-99 -111 -82 -71 24 59 136 166 198 232 294 321 203 186 391 273 638 293 141
12 161 12 161 1z m493 -175 c116 -17 235 -56 298 -96 107 -68 232 -230 270
-348 30 -94 37 -262 14 -346 -16 -60 -56 -117 -69 -97 -3 5 -11 42 -17 83 -14
90 -42 170 -69 194 -29 26 -35 13 -20 -41 7 -26 13 -67 13 -92 0 -38 -5 -50
-31 -74 -34 -30 -70 -36 -90 -16 -7 7 -12 35 -12 63 0 83 -26 143 -89 205 -99
96 -232 150 -376 150 -108 0 -139 -17 -185 -102 -19 -36 -41 -73 -49 -82 -19
-23 -55 -14 -100 26 -53 47 -182 105 -264 118 -246 42 -561 -77 -759 -286 -94
-100 -200 -281 -259 -444 -22 -59 -24 -62 -27 -33 -5 56 37 204 87 308 157
319 507 614 945 794 292 120 531 155 789 116z m-1913 -443 c-68 -52 -203 -188
-269 -272 -83 -104 -159 -218 -281 -420 -117 -194 -159 -257 -231 -345 -58
-72 -128 -141 -99 -99 8 12 42 61 76 110 34 49 112 177 174 284 149 257 200
335 298 456 93 115 164 183 272 260 77 54 123 75 60 26z m69 -118 c-65 -138
-121 -309 -145 -444 -28 -157 -26 -404 5 -528 27 -110 21 -133 -9 -36 -93 304
-53 650 113 974 73 143 78 152 83 147 3 -3 -18 -54 -47 -113z m515 -341 c-50
-65 -127 -228 -158 -334 -35 -121 -50 -270 -42 -414 8 -158 27 -245 91 -410
18 -46 -16 4 -54 80 -88 179 -115 336 -88 520 30 211 107 402 218 539 66 83
94 99 33 19z m362 -22 c-151 -220 -206 -569 -132 -835 58 -208 203 -420 385
-564 76 -60 49 -52 -56 17 -398 263 -531 777 -314 1216 45 90 139 230 149 221
2 -2 -12 -27 -32 -55z m142 -221 c-29 -111 -35 -318 -14 -451 20 -118 52 -222
97 -310 39 -77 20 -67 -35 20 -91 141 -120 260 -113 451 5 132 21 213 63 328
24 64 25 47 2 -38z m-1304 18 c-9 -24 -38 -106 -65 -183 -147 -415 -332 -665
-588 -795 -48 -24 -216 -90 -228 -90 -4 0 33 22 82 48 307 160 500 393 715
862 34 74 68 149 75 167 20 48 27 40 9 -9z m281 -401 c-10 -37 13 -222 41
-334 61 -247 173 -435 374 -626 182 -173 418 -312 650 -383 94 -29 60 -30 -67
-3 -361 78 -767 311 -954 546 -74 94 -150 248 -184 373 -29 110 -32 148 -5 73
32 -91 118 -246 185 -335 58 -77 193 -214 202 -205 2 2 -22 42 -53 88 -91 134
-163 310 -190 459 -14 77 -19 351 -7 363 11 12 14 8 8 -16z m-1106 -297 c-53
-47 -171 -126 -215 -145 -75 -32 -228 -75 -283 -80 -51 -5 -48 -3 44 23 163
46 320 121 440 210 50 37 60 32 14 -8z m608 -233 c-97 -136 -200 -214 -329
-251 -87 -25 -89 -19 -9 19 41 20 108 60 150 89 72 51 194 166 214 201 5 9 11
14 14 11 3 -3 -15 -34 -40 -69z m4548 -17 c161 -13 270 -34 620 -120 422 -103
574 -134 787 -160 98 -12 359 -14 416 -4 71 13 23 -8 -120 -51 -419 -126 -698
-211 -823 -252 -577 -187 -965 -438 -1174 -758 -25 -39 -55 -89 -65 -113 -10
-23 -22 -42 -26 -42 -4 0 -20 18 -36 41 -103 150 -375 320 -617 388 -192 54
-303 64 -637 58 -298 -5 -371 -12 -730 -67 -177 -27 -434 -36 -569 -21 -182
22 -310 61 -525 160 -99 46 -112 66 -19 28 149 -61 375 -105 578 -114 185 -8
332 8 593 63 388 81 516 101 744 110 252 11 447 -16 736 -103 95 -28 125 -34
135 -24 17 17 -27 49 -138 104 -301 149 -659 175 -1124 81 -133 -26 -184 -28
-86 -2 33 9 130 36 216 61 207 61 348 87 499 94 280 13 569 -48 913 -191 165
-69 187 -75 187 -52 0 20 -110 119 -192 174 -37 25 -67 47 -64 49 8 8 317 -19
484 -43 120 -17 179 -21 186 -14 16 16 -11 35 -105 74 -193 79 -432 121 -754
131 -205 6 -375 16 -360 21 6 2 100 16 210 31 157 22 238 28 375 28 186 0 256
-8 494 -56 81 -17 151 -27 155 -24 25 25 -268 155 -463 205 -61 15 -159 34
-218 40 -143 17 -417 7 -563 -19 -182 -34 -197 -33 -55 4 519 133 756 126
1406 -40 164 -42 307 -75 318 -73 40 6 26 29 -51 78 -252 165 -590 265 -956
283 -143 8 -134 10 138 41 65 7 158 6 280 -4z m-3267 -239 c220 -223 586 -388
936 -421 60 -5 111 -11 113 -13 2 -2 -32 -7 -74 -10 -81 -6 -239 5 -330 22
-133 26 -319 108 -449 197 -100 69 -240 215 -296 310 -64 107 -71 134 -13 51
25 -38 77 -99 113 -136z m-1036 39 c63 -96 198 -260 253 -309 62 -54 33 -44
-36 12 -109 90 -174 171 -235 291 -64 126 -61 127 18 6z m1793 -132 c136 -69
331 -125 494 -143 125 -14 370 -8 476 12 20 3 27 2 20 -5 -5 -5 -77 -18 -160
-27 -177 -21 -362 -16 -500 13 -179 38 -369 126 -470 218 l-50 45 60 -39 c33
-22 92 -55 130 -74z m4473 -160 l-3 -62 -60 -19 c-33 -10 -235 -69 -450 -132
-665 -194 -908 -286 -1155 -435 -246 -148 -420 -321 -515 -509 -29 -57 -57
-131 -50 -131 2 0 28 37 58 83 142 217 357 396 655 546 257 129 477 206 1167
406 182 53 338 98 347 101 13 4 18 -4 24 -43 4 -26 10 -58 15 -70 6 -17 4 -23
-9 -27 -9 -3 -134 -39 -277 -81 -384 -112 -659 -197 -843 -260 -416 -141 -689
-283 -871 -451 -64 -59 -141 -152 -141 -169 0 -3 24 13 53 37 268 225 555 370
1072 543 223 74 1019 315 1041 315 8 0 14 -4 14 -9 0 -5 16 -30 35 -55 19 -25
31 -47 27 -49 -4 -3 -225 -75 -492 -161 -1014 -329 -1149 -376 -1343 -472
-140 -69 -235 -132 -323 -216 -69 -66 -73 -68 -123 -68 -72 0 -189 -26 -274
-60 l-71 -28 -39 33 c-70 60 -191 90 -427 105 -257 17 -444 -13 -795 -127
-289 -94 -361 -113 -435 -113 -162 1 -357 70 -945 335 -137 62 -267 118 -287
124 -21 7 -40 16 -43 21 -3 5 20 0 52 -11 32 -11 101 -31 153 -44 110 -28 283
-86 530 -178 282 -104 427 -131 585 -107 46 6 185 47 330 95 289 98 379 120
530 135 134 12 281 0 444 -36 106 -24 260 -72 305 -96 14 -8 17 -7 14 3 -8 24
-129 98 -212 130 -289 111 -560 116 -905 15 -64 -19 -172 -50 -240 -70 -238
-70 -385 -71 -579 -5 -50 18 -91 34 -89 36 2 1 30 -2 63 -8 73 -14 242 -6 349
16 44 9 186 52 316 95 277 94 365 116 516 130 306 28 596 -65 871 -283 28 -22
9 12 -34 64 -154 180 -360 278 -655 310 -175 19 -356 -10 -709 -116 -168 -51
-322 -65 -463 -44 -111 16 -199 45 -364 120 -84 38 -182 81 -218 95 -36 15
-64 28 -62 30 1 2 44 -10 95 -26 178 -58 370 -91 554 -97 203 -7 271 2 525 67
229 59 326 77 465 86 317 19 648 -95 816 -282 60 -67 121 -166 142 -230 l13
-37 18 71 c69 274 307 560 617 743 280 166 456 230 1337 489 171 50 315 93
320 95 32 11 36 4 33 -57z m-6253 -442 c150 -39 281 -95 620 -263 275 -137
539 -241 680 -269 40 -8 40 -8 10 -14 -40 -7 -152 6 -250 31 -114 29 -247 86
-610 262 -314 152 -481 224 -620 268 -38 12 -74 26 -78 30 -11 8 165 -23 248
-45z m2750 -205 c-10 -8 -261 -58 -445 -88 -119 -19 -477 -24 -545 -7 -33 9
-18 11 90 11 87 1 200 11 342 32 117 17 270 35 340 41 71 5 146 12 168 13 22
2 44 4 50 5 6 1 6 -1 0 -7z m678 -778 c19 -6 -18 -9 -105 -9 -228 0 -321 -22
-763 -182 -520 -187 -536 -191 -651 -138 -78 36 -187 97 -181 102 2 2 30 -6
63 -18 48 -17 81 -22 179 -22 l120 0 230 83 c336 121 493 164 710 195 48 7
367 -2 398 -11z"/>
<path d="M5736 7389 c-2 -8 -10 -36 -17 -63 -16 -64 -69 -118 -132 -135 -26
-8 -47 -19 -47 -25 0 -7 20 -17 44 -24 76 -20 131 -83 150 -174 10 -43 24 -33
36 26 15 73 58 122 130 146 30 10 54 22 54 27 -1 4 -23 16 -49 25 -78 28 -135
96 -135 161 0 29 -27 57 -34 36z"/>
<path d="M5790 6425 c-6 -14 -10 -32 -10 -38 -1 -24 -42 -103 -68 -130 -33
-35 -73 -57 -131 -72 -55 -14 -63 -31 -19 -40 119 -23 188 -88 213 -199 15
-66 35 -66 50 -1 23 102 70 156 165 189 34 11 62 26 62 31 -1 6 -27 18 -59 27
-93 28 -150 98 -168 205 -8 52 -22 63 -35 28z"/>
<path d="M5265 5898 c-2 -7 -9 -32 -15 -56 -15 -58 -72 -114 -134 -132 -26 -7
-45 -17 -43 -23 2 -6 24 -16 50 -24 61 -18 112 -69 130 -131 8 -26 17 -47 21
-47 4 0 15 24 25 53 10 28 27 62 37 73 21 24 75 53 117 63 40 10 33 24 -20 37
-67 17 -118 71 -134 143 -12 54 -25 70 -34 44z"/>
</g>
</svg>
